<svg width="1040" height="344" xmlns="http://www.w3.org/2000/svg" xmlns:xlink="http://www.w3.org/1999/xlink" xml:space="preserve" overflow="hidden"><g transform="translate(-86 -128)"><path d="M987.538 474.178 1038.78 474.178 1041.49 571.366 1003.72 568.667 1009.12 490.379 982.137 571.366 928.181 598.366Z" fill="#FFFFFF" transform="matrix(1 0 0 1.1428 -684.373 -258.09)"/><path d="M238.734 152.531 233.338 230.822 271.108 233.522 268.41 136.333 217.151 136.333 157.8 260.518 211.757 233.522Z" fill="#FFFFFF" transform="matrix(1 0 0 1.1428 86.009 128)"/><path d="M1001.02 636.159 1001.02 606.463 968.646 606.463 957.864 636.159 911.997 636.159 928.183 601.063 1041.49 571.367 1044.18 636.159Z" fill="#FFFFFF" transform="matrix(1 0 0 1.1428 -684.373 -258.09)"/><path d="M273.807 298.315 271.11 233.523 157.803 263.219 141.616 298.315 187.479 298.315 198.27 268.619 230.644 268.619 230.644 298.315Z" fill="#FFFFFF" transform="matrix(1 0 0 1.1428 86.009 128)"/><path d="M1119.73 622.662 1117.03 622.662C1108.94 633.461 1095.45 638.86 1081.96 638.86 1065.78 638.86 1052.29 630.762 1057.68 606.465L1079.26 511.975 1122.42 511.975 1106.24 592.966C1103.54 603.764 1106.24 606.464 1111.63 606.464 1117.03 606.464 1122.42 601.065 1122.42 592.966L1141.32 511.975 1184.48 511.975 1160.2 636.161 1117.03 636.161ZM1216.84 474.179 1262.71 474.179 1254.62 511.975 1270.8 511.975 1265.41 541.671 1249.23 541.671 1235.74 595.665C1235.74 603.763 1235.74 606.464 1243.83 606.464L1249.23 606.464 1243.83 636.16C1241.13 636.16 1227.64 638.86 1222.24 638.86 1195.27 638.86 1184.48 636.16 1189.87 609.163L1203.36 541.671 1189.87 541.671 1197.96 511.975 1211.45 511.975ZM1311.28 574.068C1316.67 544.372 1319.37 536.273 1327.46 536.273 1335.55 536.273 1335.55 544.372 1330.16 574.068 1324.77 603.764 1322.07 609.164 1313.98 609.164 1305.87 609.164 1305.87 603.764 1311.28 574.068M1335.56 509.276C1284.29 509.276 1273.5 538.972 1265.41 574.068 1260.02 609.164 1257.32 638.861 1305.87 638.861 1357.14 638.861 1367.92 609.164 1376.02 574.068 1381.41 538.972 1384.11 509.276 1335.55 509.276M1500.12 511.976 1545.98 511.976 1537.89 598.366 1540.58 598.366 1567.56 511.976 1613.42 511.976 1556.77 636.161 1502.82 636.161Z" fill="#FFFFFF" transform="matrix(1 0 0 1.1428 -684.373 -258.09)"/><path d="M729.739 174.13 775.601 174.13 767.507 260.52 770.205 260.52 797.183 174.13 843.045 174.13 786.392 298.314 732.436 298.314Z" fill="#FFFFFF" transform="matrix(1 0 0 1.1428 86.009 128)"/><path d="M1667.39 557.87 1648.49 557.87 1651.19 549.77C1653.9 538.972 1656.6 533.573 1664.69 533.573 1670.09 533.573 1672.78 538.972 1670.09 549.77ZM1643.1 582.167 1705.15 582.167 1705.15 579.466C1713.24 538.972 1721.34 509.275 1670.09 509.275 1621.52 509.275 1608.03 538.972 1599.94 574.068 1594.55 609.164 1591.85 638.86 1640.4 638.86 1656.6 638.86 1670.09 636.16 1680.88 628.061 1691.67 619.962 1697.06 609.164 1702.45 592.966L1661.99 592.966C1659.29 603.764 1656.6 611.863 1645.8 611.863 1637.71 611.863 1640.4 603.764 1640.4 598.365ZM1734.83 511.976 1778 511.976 1772.6 530.874C1780.69 517.375 1791.48 509.276 1804.97 509.276L1810.36 509.276 1802.27 549.771 1788.79 549.771C1772.6 549.771 1767.2 557.871 1764.51 571.369L1751.02 636.161 1707.85 636.161ZM1408.4 476.878 1500.13 476.878 1494.73 509.275 1440.77 509.275 1435.38 536.272 1483.94 536.272 1478.54 568.669 1429.99 568.669 1421.89 601.064 1475.84 601.064 1470.45 633.461 1373.33 633.461Z" fill="#FFFFFF" transform="matrix(1 0 0 1.1428 -684.373 -258.09)"/><path d="M638.02 139.033 729.744 139.033 724.349 171.429 670.393 171.429 664.998 198.426 713.558 198.426 708.162 230.823 659.602 230.823 651.508 263.218 705.465 263.218 700.069 295.615 602.949 295.615Z" fill="#FFFFFF" transform="matrix(1 0 0 1.1428 86.009 128)"/><path d="M833.779 374.292 793.314 374.292 793.314 339.196 771.731 339.196 771.731 428.285 793.314 428.285 793.314 393.19 833.781 393.19 833.781 428.285 852.665 428.285 852.665 339.197 833.779 339.197Z" fill="#FFFFFF" transform="matrix(1 0 0 1.1428 -684.373 -258.09)"/><path d="M63.3974 36.4459 22.9326 36.4459 22.9326 1.3501 1.3501 1.3501 1.3501 90.4393 22.9326 90.4393 22.9326 55.3444 63.3974 55.3444 63.3974 90.4402 82.2816 90.4402 82.2816 1.3501 63.3974 1.3501Z" fill="#FFFFFF" transform="matrix(1 0 0 1.1428 86.009 128)"/><path d="M1260.03 344.595C1257.33 349.995 1257.33 355.394 1257.33 358.094L1257.33 428.285 1276.22 428.285 1276.22 401.288 1316.68 401.288 1316.68 428.285 1338.27 428.285 1338.27 339.195 1276.22 339.195C1270.82 339.195 1265.43 339.195 1260.03 344.596M1281.61 358.094 1316.68 358.094 1316.68 382.391 1276.22 382.391 1276.22 358.093ZM1122.44 339.195 1060.4 339.195 1060.4 428.284 1079.28 428.284 1079.28 358.093 1122.44 358.093 1122.44 428.284 1141.32 428.284 1141.32 358.093C1141.32 355.393 1141.32 349.994 1135.93 344.595 1133.23 339.195 1127.84 339.195 1122.44 339.195M1022.63 406.688 1022.63 409.388C1022.63 412.088 1019.93 412.088 1017.23 412.088L982.166 412.088 982.166 339.196 960.583 339.196 960.583 428.285 1022.63 428.285C1028.02 428.285 1033.42 428.285 1038.81 422.886 1041.51 420.186 1044.21 414.787 1044.21 409.388L1044.21 339.196 1022.63 339.196ZM1241.15 358.093C1241.15 355.393 1238.46 349.994 1235.76 344.595 1230.35 339.195 1224.96 339.195 1219.56 339.195L1160.22 339.195 1160.22 428.284 1219.56 428.284C1224.96 428.284 1230.35 428.284 1235.76 422.885 1238.46 420.186 1241.15 414.786 1241.15 409.387ZM1219.56 406.687 1219.56 409.387C1219.56 412.087 1216.87 412.087 1214.17 412.087L1179.1 412.087 1179.1 358.093 1219.56 358.093 1219.56 363.493ZM906.628 379.69 885.045 339.195 860.766 339.195 898.535 395.889 898.535 428.285 917.419 428.285 917.419 395.889 955.192 339.195 930.908 339.195Z" fill="#FFFFFF" transform="matrix(1 0 0 1.1428 -684.373 -258.09)"/><path d="M136.246 41.8444 114.664 1.34914 90.386 1.34914 128.154 58.0427 128.154 90.4393 147.039 90.4393 147.039 58.0427 184.807 1.34914 160.527 1.34914Z" fill="#FFFFFF" transform="matrix(1 0 0 1.1428 86.009 128)"/><path d="M1357.16 428.286 1378.74 428.286 1378.74 339.196 1357.16 339.196Z" fill="#FFFFFF" transform="matrix(1 0 0 1.1428 -684.373 -258.09)"/><path d="M586.778 90.4402 608.36 90.4402 608.36 1.3501 586.778 1.3501Z" fill="#FFFFFF" transform="matrix(1 0 0 1.1428 86.009 128)"/></g></svg>